<svg width="70" height="70" viewBox="0 0 70 70" fill="none" xmlns="http://www.w3.org/2000/svg">
<path d="M38.4781 51.3685H59.9266C60.611 51.3685 61.2661 51.128 61.8588 50.7888C62.4516 50.4496 63.0626 50.0238 63.4047 49.4361C63.7468 48.8487 63.9846 48.182 63.9844 47.5038C63.9841 46.8254 63.7473 46.159 63.4047 45.5718L48.9125 20.6451C48.5704 20.0576 48.1525 19.6316 47.5599 19.2924C46.9673 18.9533 46.1187 18.7127 45.4344 18.7127C44.7501 18.7127 44.0947 18.9533 43.5021 19.2924C42.9095 19.6316 42.4915 20.0576 42.1494 20.6451L38.4781 27.0217L31.1354 14.6545C30.793 14.0671 30.3756 13.4482 29.7828 13.1092C29.19 12.77 28.535 12.7227 27.8506 12.7227C27.1662 12.7227 26.511 12.77 25.9182 13.1092C25.3255 13.4482 24.7148 14.0671 24.3724 14.6545L6.40209 45.5718C6.05949 46.159 6.01593 46.8254 6.01563 47.5038C6.01533 48.182 6.06001 48.8485 6.40209 49.4361C6.74417 50.0236 7.35518 50.4496 7.94791 50.7888C8.54066 51.128 9.19575 51.3685 9.88021 51.3685H23.4062C28.7658 51.3685 32.6668 48.9643 35.3865 44.4123L41.9562 33.0117L45.4344 27.0217L56.0619 45.1852H41.9562L38.4781 51.3685ZM23.2131 45.1852H13.7447L27.8506 20.8383L35 33.0117L30.2642 41.2673C28.4581 44.2209 26.3989 45.1852 23.2131 45.1852Z" fill="white"/>
</svg>
