<svg width="59" height="60" viewBox="0 0 59 60" fill="none" xmlns="http://www.w3.org/2000/svg">
<path d="M49.8344 21.1916C48.9466 20.8415 48.0111 20.517 47.034 20.2182C46.1769 19.9573 45.2879 19.7161 44.3707 19.497C41.9633 18.9215 39.3626 18.4929 36.6405 18.2235C35.4515 18.1047 34.2381 18.0179 33.0087 17.9627C31.9237 17.9125 30.8242 17.8867 29.716 17.8867C28.6079 17.8867 27.5082 17.9124 26.4221 17.9627C25.1915 18.0177 23.9781 18.106 22.7891 18.2235C20.067 18.4929 17.4675 18.9215 15.0601 19.497C14.143 19.7161 13.254 19.9574 12.3968 20.2182C11.4197 20.5157 10.4842 20.8415 9.59635 21.1916C3.79604 23.4814 0.600098 26.6871 0.600098 30.2173C0.600098 33.7475 3.79604 36.9532 9.59647 39.2443C10.4843 39.5944 11.4185 39.9189 12.3956 40.2177C13.2527 40.4786 14.1417 40.7198 15.0589 40.9377C17.4663 41.5144 20.0671 41.9418 22.7904 42.2124C23.9794 42.3299 25.1928 42.4169 26.4234 42.4732C27.5083 42.5234 28.6079 42.5479 29.716 42.5479C30.8242 42.5479 31.9226 42.5234 33.0075 42.4732C34.2381 42.4169 35.4504 42.3299 36.6405 42.2124C39.3626 41.943 41.9646 41.5144 44.372 40.9377C45.2891 40.7186 46.1781 40.4786 47.0353 40.2166C48.0112 39.919 48.9467 39.5945 49.8344 39.2443C55.636 36.9532 58.8308 33.7476 58.8308 30.2173C58.8307 26.6871 55.636 23.4814 49.8344 21.1916ZM54.3307 33.472C53.0792 34.6414 51.174 35.7495 48.8217 36.6789C48.0295 36.9911 47.1968 37.2825 46.3274 37.5495C45.4739 37.8128 44.5862 38.054 43.6678 38.272C42.0894 38.6479 40.4204 38.9564 38.6829 39.1953C37.5245 39.3557 36.3355 39.4843 35.122 39.5786C33.3624 39.7195 31.5539 39.7905 29.7159 39.7905C27.8779 39.7905 26.0694 39.7195 24.3098 39.5799C23.0963 39.4844 21.9062 39.3558 20.7478 39.1954C19.0103 38.9566 17.3413 38.648 15.7629 38.2721C14.8445 38.0541 13.9568 37.8129 13.1033 37.5496C12.2339 37.2827 11.4013 36.9912 10.609 36.679C8.25678 35.7496 6.35143 34.6415 5.09998 33.4721C3.94404 32.3932 3.35752 31.2986 3.35752 30.2174C3.35752 29.1362 3.94404 28.0415 5.09998 26.9628C6.35143 25.7934 8.25666 24.6852 10.609 23.7558C11.4012 23.4436 12.2339 23.1522 13.1033 22.8852C13.9568 22.6219 14.8445 22.3807 15.7629 22.1628C17.3413 21.7868 19.0103 21.4783 20.7478 21.2395C21.9062 21.079 23.0963 20.9505 24.3098 20.855C26.0694 20.7154 27.8779 20.6444 29.7159 20.6444C31.5539 20.6444 33.3624 20.7154 35.122 20.8562C36.3355 20.9506 37.5245 21.0791 38.6829 21.2396C40.4204 21.4784 42.0894 21.787 43.6678 22.1629C44.5862 22.3809 45.4739 22.622 46.3274 22.8854C47.1968 23.1523 48.0294 23.4437 48.8217 23.7559C51.1739 24.6854 53.0792 25.7935 54.3307 26.9629C55.4866 28.0417 56.0731 29.1364 56.0731 30.2175C56.0731 31.2986 55.4866 32.3932 54.3307 33.472Z" fill="#F2F2F2"/>
<path d="M11.8526 17.2885C11.9923 18.2326 12.1781 19.2052 12.4068 20.2011C12.6086 21.074 12.8433 21.9647 13.1113 22.8689C13.8142 25.2422 14.7409 27.7097 15.8661 30.2029C16.3566 31.2925 16.887 32.3874 17.4528 33.4802C17.9509 34.4454 18.4773 35.4111 19.0304 36.3713C19.5835 37.3315 20.1547 38.2716 20.7403 39.1876C21.4023 40.2265 22.0844 41.234 22.7797 42.2056C24.3718 44.4298 26.0407 46.4685 27.741 48.2673C28.3886 48.9527 29.0414 49.6026 29.6952 50.2152C30.4407 50.9134 31.19 51.5614 31.9365 52.156C36.8157 56.0393 41.1888 57.2085 44.2478 55.4465C47.3068 53.6846 48.4895 49.3151 47.5796 43.1453C47.4399 42.2013 47.2548 41.2298 47.026 40.2339C46.8242 39.361 46.5895 38.4703 46.3206 37.5667C45.6187 35.1928 44.6909 32.7259 43.5661 30.231C43.0745 29.142 42.5442 28.0471 41.9788 26.9526C41.4808 25.9875 40.9532 25.0224 40.4001 24.0622C39.847 23.102 39.2775 22.1624 38.6925 21.2473C38.0295 20.2091 37.349 19.202 36.6531 18.2294C35.061 16.0052 33.3909 13.9643 31.6896 12.1661C31.042 11.4808 30.3903 10.8302 29.7354 10.2182C28.9904 9.52104 28.2423 8.87236 27.4957 8.27797C22.6148 4.39423 18.2424 3.2259 15.1833 4.98796C12.1244 6.75005 10.941 11.1184 11.8526 17.2885ZM20.2497 7.26296C21.8876 7.76369 23.7988 8.86153 25.7783 10.436C26.4442 10.9666 27.1124 11.5427 27.7776 12.1629C28.4318 12.771 29.0839 13.4198 29.7311 14.1069C30.8447 15.2869 31.9451 16.5792 33.0193 17.9656C33.7365 18.8893 34.4414 19.8554 35.1288 20.8598C36.1291 22.3143 37.0934 23.846 38.0107 25.4386C38.9281 27.0313 39.7693 28.6339 40.5266 30.2283C41.0495 31.3275 41.5321 32.4229 41.9713 33.5068C42.6316 35.1316 43.1973 36.7318 43.6593 38.2872C43.9289 39.1918 44.1629 40.0814 44.3608 40.9524C44.5634 41.839 44.7264 42.706 44.8514 43.5484C45.22 46.0505 45.2108 48.2546 44.8221 49.9227C44.4643 51.4629 43.8085 52.5175 42.8716 53.0571C41.9347 53.5967 40.6933 53.6349 39.1816 53.1717C37.5437 52.671 35.6325 51.5731 33.653 49.9987C32.9871 49.468 32.3189 48.8919 31.6537 48.2718C30.9995 47.6637 30.3474 47.0148 29.7002 46.3278C28.5866 45.1477 27.4862 43.8555 26.412 42.4691C25.6948 41.5454 24.9893 40.5782 24.3009 39.5744C23.3017 38.1193 22.3375 36.5876 21.4201 34.995C20.5027 33.4023 19.6615 31.7997 18.9054 30.2047C18.3814 29.1061 17.8994 28.0116 17.4602 26.9278C16.7999 25.3029 16.2342 23.7027 15.7722 22.1473C15.5026 21.2427 15.2686 20.3531 15.0707 19.4821C14.8681 18.5955 14.7051 17.7286 14.5801 16.8862C14.2115 14.384 14.2207 12.1799 14.6094 10.5118C14.9673 8.97168 15.623 7.91707 16.5599 7.37743C17.4967 6.83785 18.738 6.79972 20.2497 7.26296Z" fill="#F2F2F2"/>
<path d="M32.0054 8.28604C31.257 8.87823 30.5068 9.52455 29.758 10.2197C29.1022 10.8302 28.4475 11.4781 27.7976 12.1615C26.0917 13.9549 24.4158 15.9894 22.8167 18.2086C22.1172 19.1774 21.4332 20.1834 20.7684 21.2191C20.1806 22.1323 19.6065 23.0705 19.0503 24.0289C18.4942 24.9874 17.9646 25.9515 17.463 26.9161C16.893 28.0082 16.3604 29.1021 15.8654 30.1895C14.7323 32.6791 13.7984 35.1427 13.0881 37.5138C12.8174 38.417 12.5799 39.307 12.3752 40.1793C12.1422 41.1738 11.9545 42.1465 11.8119 43.0901C10.8815 49.2562 12.0504 53.6294 15.1039 55.401C18.1573 57.1726 22.534 56.0171 27.4266 52.1498C28.175 51.5576 28.9245 50.9124 29.6734 50.2172C30.3291 49.6067 30.9839 48.9588 31.6327 48.2749C33.3397 46.482 35.0145 44.4469 36.6153 42.2272C37.3136 41.2578 37.9978 40.2518 38.6642 39.2157C39.252 38.3024 39.825 37.3637 40.3811 36.4052C40.9372 35.4467 41.4673 34.4844 41.9684 33.5208C42.5372 32.4281 43.0704 31.3359 43.566 30.2474C44.699 27.7578 45.6342 25.2921 46.3435 22.9204C46.6142 22.0172 46.8528 21.1278 47.0563 20.2548C47.2887 19.2614 47.4776 18.2894 47.6201 17.3458C48.55 11.1779 47.3805 6.80581 44.327 5.03413C41.2735 3.26262 36.8974 4.41702 32.0054 8.28604ZM44.8837 10.5599C45.2672 12.2292 45.2695 14.4332 44.8929 16.9343C44.7654 17.7762 44.5996 18.6427 44.3942 19.5287C44.1936 20.3991 43.9567 21.2879 43.6843 22.1917C43.2174 23.7456 42.6467 25.344 41.9813 26.9668C41.5387 28.0492 41.0532 29.1422 40.5258 30.2391C39.7646 31.8318 38.9184 33.4317 37.996 35.0215C37.0736 36.6112 36.1046 38.1399 35.1008 39.5918C34.4092 40.5935 33.7007 41.5584 32.9806 42.4798C31.9021 43.8629 30.7976 45.1516 29.6803 46.3282C29.0309 47.0132 28.3768 47.66 27.7207 48.266C27.0535 48.8841 26.3836 49.458 25.7159 49.9866C23.7316 51.5547 21.8169 52.6467 20.1774 53.1422C18.6641 53.6006 17.4229 53.5586 16.4878 53.016C15.5526 52.4734 14.9 51.4167 14.5471 49.8755C14.1637 48.2062 14.1613 46.0022 14.5379 43.5011C14.6655 42.6592 14.8313 41.7927 15.0367 40.9067C15.2373 40.0363 15.4742 39.1475 15.7465 38.2437C16.2135 36.6898 16.7842 35.0914 17.4496 33.4686C17.8922 32.3862 18.3783 31.2922 18.9046 30.1947C19.6669 28.6027 20.5131 27.0027 21.4355 25.413C22.3579 23.8232 23.327 22.2945 24.3319 20.8433C25.0224 19.841 25.7303 18.8771 26.4504 17.9557C27.529 16.5726 28.6335 15.2839 29.7507 14.1073C30.4002 13.4223 31.0543 12.7756 31.7103 12.1695C32.3776 11.5515 33.0475 10.9775 33.7152 10.4489C35.6995 8.8808 37.6142 7.78887 39.2537 7.2933C40.767 6.83488 42.0081 6.87691 42.9433 7.4195C43.8783 7.96203 44.5308 9.01869 44.8837 10.5599Z" fill="#F2F2F2"/>
<path d="M29.7158 35.6895C32.738 35.6895 35.188 33.2395 35.188 30.2173C35.188 27.1951 32.738 24.7451 29.7158 24.7451C26.6936 24.7451 24.2437 27.1951 24.2437 30.2173C24.2437 33.2395 26.6936 35.6895 29.7158 35.6895Z" fill="#F2F2F2"/>
</svg>
